<?xml version="1.0" encoding="UTF-8" standalone="no"?>
<!-- Created with Inkscape (http://www.inkscape.org/) -->

<svg
   version="1.1"
   id="svg118"
   width="473.33334"
   height="445.33334"
   viewBox="0 0 473.33334 445.33334"
   sodipodi:docname="cat_logo.svg"
   inkscape:export-filename="../../../../Pictures/cat_icon_shadow.svg"
   inkscape:export-xdpi="96"
   inkscape:export-ydpi="96"
   xmlns:inkscape="http://www.inkscape.org/namespaces/inkscape"
   xmlns:sodipodi="http://sodipodi.sourceforge.net/DTD/sodipodi-0.dtd"
   xmlns="http://www.w3.org/2000/svg"
   xmlns:svg="http://www.w3.org/2000/svg">
  <sodipodi:namedview
     id="namedview64"
     pagecolor="#505050"
     bordercolor="#ffffff"
     borderopacity="1"
     inkscape:showpageshadow="0"
     inkscape:pageopacity="0"
     inkscape:pagecheckerboard="1"
     inkscape:deskcolor="#505050"
     showgrid="false" />
  <defs
     id="defs122" />
  <g
     id="g124"
     style="fill:#000000">
    <path
       style="fill:#000000;stroke-width:1.33333"
       d="M 37.823216,443.57551 C 23.206945,439.62212 8.9302245,426.27957 2.9313512,410.96676 0.80701618,405.54415 0.04562118,400.65861 0.00912518,392.21613 -0.06297482,375.53676 4.4956412,364.81428 17.742379,350.50519 35.82984,330.96714 70.399726,324.06898 95.756297,334.93808 l 5.841783,2.50408 2.26265,-10.23771 c 10.74189,-48.60328 36.74096,-96.28239 72.2891,-132.56931 5.56669,-5.6824 9.87049,-10.51577 9.56398,-10.74085 -8.91869,-6.54936 -18.73918,-15.00659 -20.44028,-17.60279 -2.18208,-3.33026 -2.36594,-3.36106 -14.82989,-2.48494 -8.51523,0.59856 -12.62043,0.4301 -12.62043,-0.51788 0,-1.501 11.16254,-3.45946 18.33334,-3.21656 4.13556,0.14006 5.72681,-1.4201 3.10258,-3.04196 -0.67692,-0.41836 -1.62458,-2.55376 -2.10594,-4.74536 l -0.87519,-3.98471 h -21.2274 c -11.67506,0 -21.22739,-0.52271 -21.22739,-1.16156 0,-1.71911 12.30456,-3.08137 26.41931,-2.92496 6.83061,0.0757 12.88955,-0.153 13.46431,-0.50821 0.57476,-0.35523 0.67837,-2.90143 0.23026,-5.65824 -0.88013,-5.41477 -0.57729,-5.27888 -16.78054,-7.52934 -2.93334,-0.40741 -8.33334,-1.35606 -12,-2.10811 -3.66667,-0.75205 -8.72833,-1.56933 -11.24813,-1.81618 -2.5198,-0.24685 -4.83373,-1.20564 -5.14207,-2.13065 -0.87643,-2.62929 23.81686,0.0732 41.3902,4.5298 3.59242,0.91104 3.66666,0.80903 3.66666,-5.03897 v -5.96885 l -7.66666,-2.04513 c -4.21667,-1.12482 -12.29923,-3.0894 -17.96125,-4.36573 -9.5436,-2.15131 -12.76299,-4.63048 -5.96006,-4.58969 2.41666,0.0145 20.26903,3.58293 30.95153,6.18677 2.1585,0.52614 3.06128,-0.36028 4.52214,-4.44013 2.11765,-5.91418 8.4,-15.500439 13.5999,-20.752149 2.51374,-2.53879 5.50886,-9.32643 9.80947,-22.23053 7.24561,-21.74063 21.32729,-51.09067 27.81075,-57.9651403 9.45035,-10.02029 18.25196,-4.59004 29.24437,18.0426403 3.33226,6.86089 7.07944,15.77436 8.32708,19.80769 l 2.26843,7.33333 6.19383,0.0966 c 19.73466,0.30781 39.14848,3.4898 52.68714,8.63561 3.762,1.42987 7.63494,2.60007 8.60652,2.60044 0.9716,3.7e-4 6.0716,-2.79104 11.33334,-6.20313 33.59184,-21.78333 38.99192,-23.16777 42.30954,-10.84702 1.32526,4.92158 0.90828,23.29132 -0.75945,33.4581 -1.57675,9.61206 -2.25688,13.62844 -4.44483,26.247509 l -2.42529,13.98813 4.42997,12.67854 c 2.43648,6.9732 4.43603,14.56292 4.44343,16.86604 l 0.0135,4.18749 8.37844,0.12573 c 12.97437,0.19464 30.9804,4.08727 19.51045,4.21786 -26.68884,0.30382 -27.88892,0.42278 -27.88892,2.76439 0,1.26442 -0.33285,3.16635 -0.73968,4.22652 -0.5632,1.46766 0.92031,2.14779 6.21748,2.8505 3.82644,0.50758 12.70931,2.74904 19.73968,4.981 12.60644,4.0022 17.25499,6.30064 13.38252,6.6169 -2.30188,0.188 -1.69917,0.327 -15.93333,-3.67476 -15.35203,-4.31602 -23.9818,-5.32344 -25.4706,-2.97334 -2.1389,3.37626 -1.22234,4.78456 4.54818,6.98834 9.17526,3.50406 25.4187,12.32406 26.02024,14.12867 0.75666,2.26997 -2.74068,1.04944 -19.41497,-6.77564 l -13.77016,-6.46219 -3.90619,4.30552 -3.90618,4.30551 8.21944,3.91013 c 9.76696,4.64632 8.6502,5.7589 -2.39424,2.38524 l -7.92552,-2.42094 -7.33334,4.13212 c -4.03333,2.27266 -10.18333,4.92889 -13.66666,5.90273 -7.04123,1.96852 -7.3583,2.4596 -3.9853,6.17264 6.07696,6.68957 18.0064,23.85307 24.96478,35.91808 20.17805,34.98643 31.03525,69.5874 31.79666,101.33334 0.24491,10.21133 -1.45584,33.73638 -2.56922,35.53788 -1.46983,2.37822 2.00952,0.93668 9.58636,-3.97176 21.8929,-14.1827 37.85608,-33.7196 43.73968,-53.53183 2.87122,-9.66847 1.95132,-22.75591 -2.50835,-35.68631 -3.39915,-9.85552 -3.62471,-11.53315 -2.19305,-16.31159 1.93697,-6.46502 5.44966,-8.57077 12.69398,-7.60962 6.19223,0.82157 10.84283,5.3524 16.20573,15.78837 19.18614,37.33543 2.29756,82.42132 -43.46642,116.03823 -7.7186,5.66987 -22.38811,12.6246 -36.16808,17.14711 l -12.90323,4.23474 -1.5818,6.5937 c -1.77564,7.40168 -6.22416,13.41746 -12.43724,16.81897 -3.86485,2.11592 -15.54818,2.3074 -157.50784,2.58157 -132.203164,0.25532 -154.343904,0.0228 -160.666664,-1.68738 z m 268.677944,-6.94208 c -3.64586,-9.04332 -1.3587,-17.94746 6.27603,-24.43311 3.81539,-3.24115 4.04461,-3.98667 4.09967,-13.33333 0.032,-5.44512 -0.72862,-12.30023 -1.69042,-15.23356 -3.55622,-10.84598 -13.0308,-21.39771 -21.69656,-24.1632 -2.01666,-0.64358 -3.73674,-1.47014 -3.8224,-1.8368 -0.0856,-0.36667 1.18212,-5.15894 2.81728,-10.64947 6.3986,-21.48534 1.14022,-42.0845 -14.56598,-57.06068 -16.63991,-15.86651 -40.60355,-20.9881 -64.15955,-13.71239 -13.60288,4.20151 -13.87955,4.56483 -10.64186,13.97536 1.48822,4.32555 2.70584,9.90051 2.70584,12.38879 0,17.04577 -22.21822,23.67685 -30.76965,9.18326 l -2.75684,-4.67249 -7.45893,3.29869 c -12.1202,5.36012 -29.57339,17.73702 -41.30901,29.29419 -8.73169,8.59891 -11.30801,10.46487 -12.66667,9.17411 -3.06814,-2.91481 -15.408323,-8.71531 -22.632003,-10.63816 -9.006581,-2.39744 -29.032741,-2.42628 -37.939973,-0.0547 -16.820224,4.47855 -32.283865,17.15867 -39.496194,32.3867 -3.9096048,8.2547 -4.2916088,10.18552 -4.1719318,21.08673 0.09896,9.01373 0.808319,13.49313 2.8505003,18 6.2532375,13.8002 17.5186545,24.25125 29.6779615,27.53256 4.511495,1.21747 38.640316,1.64319 137.14873,1.71079 124.38756,0.0853 131.0942,-0.0301 130.20196,-2.24335 z M 337.012,195.20065 c 0.37372,-0.60471 -4.24086,-1.78895 -10.25465,-2.63167 -6.01377,-0.8427 -12.43413,-1.95201 -14.26747,-2.4651 -2.96408,-0.82955 -3.1357,-0.69186 -1.54925,1.24308 2.98303,3.63829 24.26071,6.78341 26.07137,3.85369 z m -51.40624,-24.64081 c 2.44706,-2.5442 3.90322,-4.96324 3.23591,-5.37567 -1.71144,-1.05773 -18.07628,-3.60403 -18.76116,-2.91916 -0.79188,0.79189 2.05711,8.63219 4.48101,12.33155 2.39215,3.65088 4.3321,2.94182 11.04424,-4.03672 z m -65.8067,1.77934 c 0.86578,-1.40088 -0.23267,-1.68377 -15.30918,-3.94264 -5.5,-0.82404 -11.35,-1.85284 -13,-2.2862 -5.43795,-1.42825 -3.12371,1.79523 3.33333,4.64295 6.73908,2.97211 23.46282,4.03401 24.97585,1.58589 z m 102.97037,-10.65844 c 4.12333,-2.51412 9.72045,-11.2503 9.72045,-15.17202 0,-1.04368 -1.35,-2.2594 -3,-2.70158 -5.9236,-1.58746 -7.42921,-0.96 -8.38136,3.49295 -1.2031,5.62667 -2.93673,7.66667 -6.51522,7.66667 -4.34352,0 -6.10342,-2.56238 -6.10342,-8.88643 0,-4.25057 -0.64896,-6.03373 -2.57008,-7.06188 -9.71881,-5.20135 -10.13097,12.87781 -0.48662,21.34567 5.33877,4.6875 11.09128,5.12438 17.33625,1.31662 z M 247.0484,147.04376 c 2.0171,-1.4363 5.11463,-5.33943 6.88343,-8.67366 3.70076,-6.97598 2.69472,-10.44916 -3.23183,-11.15749 -3.69144,-0.44119 -5.12473,1.53883 -6.80481,9.40051 -1.00221,4.68965 -6.10528,6.17881 -10.74836,3.13654 -2.78949,-1.82774 -3.32361,-3.2212 -3.32361,-8.67099 0,-6.88734 -1.1235,-8.11191 -7.44239,-8.11191 -2.89644,0 -3.22428,0.56727 -3.22428,5.57903 0,17.19489 15.38889,27.40086 27.89185,18.49797 z"
       id="path355" />
  </g>
  <path
     style="fill:#000000;stroke-width:0.835522"
     d="m 234.26933,272.68051 c -11.04921,0.2302 -22.71566,2.07541 -32.14312,8.10881 -2.60234,3.58608 0.82665,8.46894 1.22064,12.33048 2.50207,7.44048 2.50713,17.01813 -4.19066,22.26699 -7.47281,6.5864 -19.65196,3.23885 -24.40312,-5.03271 -1.55098,-3.13663 -4.86924,-3.48633 -7.55724,-1.51928 -19.76739,8.59236 -36.25199,22.94813 -51.80891,37.53649 -2.49551,2.82709 -6.04378,1.37059 -8.41397,-0.7572 -11.405492,-6.65138 -24.445031,-10.16756 -37.670299,-9.71784 -23.174072,-1.27467 -46.400936,11.42954 -57.399723,31.93099 -2.8535091,5.57794 -6.6754529,11.03301 -5.38357,17.6194 0.5603869,6.80319 -1.1436001,14.11002 0.8465892,20.59834 6.1612158,14.28388 17.2950628,28.56556 33.3070138,31.7654 36.772458,2.00986 73.653459,1.12308 110.471699,1.46733 51.24315,-0.13507 102.51114,0.30541 153.73772,-0.7901 3.92219,-1.57827 -0.0507,-6.03848 0.70171,-8.95086 -1.01628,-8.85417 5.94151,-15.29666 11.40194,-21.16221 0.79465,-12.53955 0.83324,-26.69507 -7.77917,-36.93269 -4.59239,-6.41427 -11.50012,-10.68566 -18.43371,-13.92973 0.18449,-6.68466 3.84495,-12.95767 4.02095,-19.76205 2.74233,-15.45096 -2.03112,-31.656 -12.34189,-43.40636 -11.78908,-13.8423 -29.84519,-22.60509 -48.18288,-21.6632 z"
     id="path330" />
  <path
     style="fill:#000000;fill-opacity:1;stroke-width:0.208881"
     d="m 302.70587,137.27777 c -2.90853,-0.0503 -4.75772,2.88033 -4.97683,5.50147 -0.51176,4.45646 0.58574,8.98274 2.8305,12.84534 2.58484,4.67151 7.16822,8.52573 12.52141,9.41472 4.06924,0.36986 8.28856,-1.05334 11.41132,-3.66561 3.8539,-3.48329 7.01158,-7.91621 8.55962,-12.90572 0.63598,-1.48668 0.31838,-3.27879 -1.00851,-4.27634 -2.18254,-1.59265 -5.06712,-2.03099 -7.71756,-1.95295 -2.28836,-0.004 -3.42975,2.26354 -3.87327,4.1976 -0.76439,2.5833 -1.17396,5.91144 -3.87367,7.28839 -1.75233,0.41061 -3.92126,0.45039 -5.40478,-0.71191 -2.1879,-2.53423 -1.4857,-6.14924 -1.94843,-9.21333 -0.0145,-2.21624 -0.93987,-4.55284 -3.02024,-5.58578 -1.06747,-0.57605 -2.27964,-0.94674 -3.49956,-0.93588 z"
     id="path332" />
  <path
     style="fill:#000000;fill-opacity:1;stroke-width:0.590803"
     d="m 271.37955,161.55012 c -3.58565,0.1361 -1.50653,4.50482 -0.6785,6.35229 1.80109,3.3401 2.84824,8.24349 6.68577,9.73787 4.75642,-2.18013 8.4964,-6.38673 11.66376,-10.48907 1.65211,-2.90382 -3.0166,-3.30012 -4.81942,-3.79413 -4.22897,-0.89593 -8.52813,-1.61653 -12.85161,-1.80696 z"
     id="path5771" />
  <path
     style="fill:#000000;fill-opacity:1;stroke-width:0.590803"
     d="m 222.71674,122.43247 c -2.6354,-0.34831 -4.75926,1.76999 -4.22102,4.44834 -0.51715,10.04566 5.18111,21.66682 15.76592,23.75329 8.55769,1.9943 16.42359,-4.39407 19.99846,-11.70298 2.23359,-3.44899 3.88956,-9.77494 -0.95659,-11.80799 -3.29156,-1.49212 -7.42672,0.0191 -8.36587,3.64867 -1.5279,3.60153 -1.78964,10.07616 -7.07926,9.83942 -3.5822,-0.41602 -7.39638,-2.82847 -7.1329,-6.86307 -0.5983,-3.65777 0.58522,-9.8071 -4.30584,-10.89565 -1.20233,-0.32995 -2.45843,-0.45146 -3.7029,-0.42003 z"
     id="path5773" />
  <path
     style="fill:#000000;fill-opacity:1;stroke-width:0.147701"
     d="m 189.30605,164.90108 c -1.06752,-0.14759 -2.17854,0.9346 -1.59499,1.98935 1.08793,1.7484 3.04456,2.71084 4.76964,3.72536 4.89319,2.57259 10.49139,3.34174 15.93112,3.8058 3.43878,0.14583 6.98393,0.4602 10.34382,-0.46373 1.12515,-0.32789 2.60176,-1.39015 2.08113,-2.71914 -1.0115,-1.41736 -2.96862,-1.454 -4.51399,-1.86202 -8.5421,-1.57267 -17.20749,-2.54553 -25.67556,-4.35871 -0.44344,-0.0684 -0.89173,-0.12251 -1.34117,-0.11691 z"
     id="path6884" />
  <path
     style="fill:#000000;fill-opacity:1;stroke-width:0.10444"
     d="m 310.23597,188.69768 c -0.96332,-0.044 -1.51166,1.13101 -0.99606,1.89746 0.97712,1.73295 2.73724,2.864 4.57804,3.51078 4.77126,1.76181 9.83354,2.63395 14.88743,3.07059 2.61327,0.15509 5.33432,0.31176 7.85199,-0.53321 0.8697,-0.25971 1.68614,-1.28731 1.09601,-2.1651 -0.75337,-0.93016 -2.06867,-1.04744 -3.13811,-1.41035 -5.60117,-1.38119 -11.37526,-1.83047 -17.03188,-2.92642 -2.35391,-0.3885 -4.6546,-0.99251 -7.00713,-1.43825 -0.0799,-0.006 -0.16016,-0.009 -0.24029,-0.006 z"
     id="path6886" />
</svg>
